{"title":"L'Avventura (Michelangelo Antonioni, 1960)","uid":8974316,"size":1565190075,"categoryP":"video","categoryS":"movies","magnet":"?xt=urn:btih:1cfc03b34df6c5201330be2ed5bc9b7cc2d8b42d&amp;dn=L%27Avventura+%28Michelangelo+Antonioni%2C+1960%29&amp;tr=udp%3A%2F%2Ftracker.openbittorrent.com%3A80&amp;tr=udp%3A%2F%2Fopen.demonii.com%3A1337&amp;tr=udp%3A%2F%2Ftracker.coppersurfer.tk%3A6969&amp;tr=udp%3A%2F%2Fexodus.desync.com%3A6969","seeders":15,"leechers":2,"uploader":"moonflux","files":1,"time":1380399740,"description":"A group of rich Italians head out on a yachting trip to a deserted volcanic island in the Mediterranean. When they are about to leave the island, they find Anna, the main character up to this point, has gone missing. Sandro, Anna's boyfriend, and Claudia, Anna's friend, try without success to find her. While looking for the missing friend, Claudia and Sandro develop an attraction for each other. When they get back to land, they continue the search with no success. Sandro and Claudia proceed to become lovers, and all but forget about the missing Anna. \n\n\nGeneral\nUnique ID : 238863313545881609232043451707652685350 (0xB3B3669BF76043339FAD400E95C5BE26)\nComplete name : L'Avventura.AKA.The.Adventure.1960.CRiTERiON.DVDRip.x264-PTP.mkv\nFormat : Matroska\nFormat version : Version 1\nFile size : 1.46 GiB\nDuration : 2h 23mn\nOverall bit rate : 1 456 Kbps\nEncoded date : UTC 2009-02-19 02:51:36\nWriting application : mkvmerge v2.4.2 ('Oh My God') built on Jan 18 2009 17:30:28\nWriting library : libebml v0.7.7 + libmatroska v0.8.1\n\nVideo\nID : 1\nFormat : AVC\nFormat/Info : Advanced Video Codec\nFormat profile : &lt;a class=&quot;__cf_email__&quot; href=&quot;/cdn-cgi/l/email-protection&quot; data-cfemail=&quot;eba3828c83aba7d8c5da&quot;&gt;[email&amp;#160;protected]&lt;/a&gt;&lt;script cf-hash='f9e31' type=&quot;text/javascript&quot;&gt;\n/* &lt;![CDATA[ */!function(){try{var t=&quot;currentScript&quot;in document?document.currentScript:function(){for(var t=document.getElementsByTagName(&quot;script&quot;),e=t.length;e--;)if(t[e].getAttribute(&quot;cf-hash&quot;))return t[e]}();if(t&amp;&amp;t.previousSibling){var e,r,n,i,c=t.previousSibling,a=c.getAttribute(&quot;data-cfemail&quot;);if(a){for(e=&quot;&quot;,r=parseInt(a.substr(0,2),16),n=2;a.length-n;n+=2)i=parseInt(a.substr(n,2),16)^r,e+=String.fromCharCode(i);e=document.createTextNode(e),c.parentNode.replaceChild(e,c)}}}catch(u){}}();/* ]]&gt; */&lt;/script&gt;\nFormat settings, CABAC : Yes\nFormat settings, ReFrames : 8 frames\nCodec ID : V_MPEG4/ISO/AVC\nDuration : 2h 23mn\nBit rate : 1 243 Kbps\nWidth : 704 pixels\nHeight : 480 pixels\nDisplay aspect ratio : 16:9\nOriginal display aspect ratio : 3:2\nFrame rate : 23.976 fps\nStandard : NTSC\nColor space : YUV\nChroma subsampling : 4:2:0\nBit depth : 8 bits\nScan type : Progressive\nBits/(Pixel*Frame) : 0.153\nStream size : 1.22 GiB (84%)\nTitle : Video Track\nWriting library : x264 core 66 r1113M cc4f807\nEncoding settings : cabac=1 // deblock=1:-3:-3 / analyse=0x3:0x133 / me=tesa / subme=9 / psy_rd=1.0:0.0 // me_range=32 / chroma_me=0 / trellis=2 / 8x8dct=1 / cqm=0 / deadzone=21,11 / chroma_qp_offset=-2 / threads=6 / nr=0 / decimate=1 / mbaff=0 / bframes=8 / b_pyramid=1 / b_adapt=2 / b_bias=0 / direct=3 / wpredb=1 / keyint=250 / keyint_min=25 / scenecut=40(pre) / rc=2pass / bitrate=1243 / ratetol=4.0 / qcomp=0.60 / qpmin=10 / qpmax=51 / qpstep=4 / cplxblur=20.0 / qblur=0.5 / ip_ratio=1.40 / pb_ratio=1.30 / aq=1:1.00\nLanguage : Italian\n\nAudio #1\nID : 2\nFormat : AC-3\nFormat/Info : Audio Coding 3\nMode extension : CM (complete main)\nCodec ID : A_AC3\nDuration : 2h 23mn\nBit rate mode : Constant\nBit rate : 160 Kbps\nChannel(s) : 1 channel\nChannel positions : Front: C\nSampling rate : 48.0 KHz\nBit depth : 16 bits\nCompression mode : Lossy\nStream size : 164 MiB (11%)\nTitle : Audio Track\nLanguage : Italian\n\nAudio #2\nID : 3\nFormat : Vorbis\nFormat settings, Floor : 1\nCodec ID : A_VORBIS\nDuration : 2h 23mn\nBit rate mode : Variable\nBit rate : 48.0 Kbps\nChannel(s) : 1 channel\nSampling rate : 48.0 KHz\nCompression mode : Lossy\nStream size : 49.2 MiB (3%)\nTitle : Commentary Track\nWriting library : libVorbis 1.2 (UTC 2007-06-22)\nLanguage : English\n\nText\nID : 4\nFormat : UTF-8\nCodec ID : S_TEXT/UTF8\nCodec ID/Info : UTF-8 Plain Text\nTitle : Subtitle Track\nLanguage : English","torrent":{"xt":"urn:btih:1cfc03b34df6c5201330be2ed5bc9b7cc2d8b42d","amp;dn":"L%27Avventura+%28Michelangelo+Antonioni%2C+1960%29","amp;tr":["udp%3A%2F%2Ftracker.openbittorrent.com%3A80","udp%3A%2F%2Fopen.demonii.com%3A1337","udp%3A%2F%2Ftracker.coppersurfer.tk%3A6969","udp%3A%2F%2Fexodus.desync.com%3A6969"],"infoHash":"1cfc03b34df6c5201330be2ed5bc9b7cc2d8b42d","infoHashBuffer":{"type":"Buffer","data":[28,252,3,179,77,246,197,32,19,48,190,46,213,188,155,124,194,216,180,45]},"announce":[],"urlList":[]}}